<svg xmlns="http://www.w3.org/2000/svg" version="1.1" viewBox="-14 -8 60 60" x="0px" y="0px"
    fill="currentColor">
    <path
        d="M16.004 0.6c4.017 0 7.27 3.267 7.27 7.277v0.906c0 0.295-0.227 0.518-0.518 0.518-0.286 0-0.523-0.235-0.523-0.518v-0.906c0-3.434-2.802-6.236-6.236-6.236s-6.234 2.802-6.234 6.236v5.855h15.051c1.732 0 3.137 1.398 3.137 3.137v11.396c0 1.731-1.405 3.135-3.137 3.135h-17.631c-1.732-0.006-3.126-1.402-3.129-3.133v-11.398c0-1.731 1.404-3.137 3.135-3.137h1.541v-5.855c0-4.018 3.258-7.277 7.275-7.277zM24.809 14.773h-17.625c-1.151 0-2.096 0.946-2.096 2.096v11.396c0 1.151 0.947 2.094 2.096 2.094h17.639c1.143-0.010 2.082-0.948 2.082-2.094v-11.396c0-1.151-0.946-2.096-2.096-2.096zM15.998 20.662c0.295 0 0.523 0.231 0.523 0.518v2.893c0 0.295-0.224 0.518-0.523 0.518-0.295 0-0.516-0.226-0.516-0.518v-2.893c0-0.292 0.219-0.518 0.516-0.518z" />
</svg>