<svg xmlns="http://www.w3.org/2000/svg" xmlns:xlink="http://www.w3.org/1999/xlink"
  xml:space="preserve" version="1.1"
  color="currentColor"
  style="shape-rendering:geometricPrecision;text-rendering:geometricPrecision;image-rendering:optimizeQuality;"
  viewBox="0 0 333.33 416.66249999999997" x="0px" y="0px" fill-rule="evenodd" clip-rule="evenodd"><defs>
</defs><g><path d="M53.32 162.41c8.62,1.57 16.33,5.76 22.28,11.71 7.66,7.66 12.4,18.24 12.4,29.93 0,11.69 -4.74,22.27 -12.4,29.93 -5.95,5.95 -13.66,10.13 -22.28,11.71l0 16.4c0,4.23 -3.43,7.65 -7.65,7.65 -4.23,0 -7.66,-3.43 -7.66,-7.65l0 -16.4c-8.62,-1.57 -16.33,-5.76 -22.28,-11.71 -7.66,-7.66 -12.4,-18.25 -12.4,-29.93 0,-11.69 4.74,-22.27 12.4,-29.93 5.94,-5.95 13.66,-10.13 22.28,-11.71l0 -91.17c0,-4.23 3.43,-7.65 7.66,-7.65 4.23,0 7.65,3.43 7.65,7.65l0 91.17zm226.69 -91.17c0,-4.23 3.43,-7.65 7.65,-7.65 4.23,0 7.66,3.43 7.66,7.65l0 16.4c8.62,1.57 16.33,5.76 22.28,11.71 7.66,7.66 12.4,18.25 12.4,29.93 0,11.69 -4.74,22.27 -12.4,29.93 -5.94,5.95 -13.66,10.13 -22.28,11.71l0 91.17c0,4.23 -3.43,7.65 -7.66,7.65 -4.23,0 -7.65,-3.43 -7.65,-7.65l0 -91.17c-8.62,-1.57 -16.33,-5.76 -22.28,-11.71 -7.66,-7.66 -12.4,-18.24 -12.4,-29.93 0,-11.69 4.74,-22.27 12.4,-29.93 5.95,-5.95 13.66,-10.13 22.28,-11.71l0 -16.4zm7.65 85.06c7.46,0 14.22,-3.02 19.11,-7.91 4.89,-4.89 7.91,-11.64 7.91,-19.11 0,-7.46 -3.02,-14.22 -7.91,-19.11 -4.89,-4.89 -11.64,-7.91 -19.11,-7.91 -7.46,0 -14.22,3.02 -19.11,7.91 -4.89,4.89 -7.91,11.65 -7.91,19.11 0,7.46 3.02,14.22 7.91,19.11 4.89,4.89 11.65,7.91 19.11,7.91zm-128.66 -85.06c0,-4.23 3.43,-7.65 7.66,-7.65 4.23,0 7.66,3.43 7.66,7.65l0 16.4c8.62,1.57 16.33,5.76 22.28,11.71 7.66,7.66 12.4,18.24 12.4,29.93 0,11.69 -4.74,22.27 -12.4,29.93 -5.94,5.95 -13.66,10.13 -22.28,11.71l0 91.17c0,4.23 -3.43,7.65 -7.66,7.65 -4.23,0 -7.66,-3.43 -7.66,-7.65l0 -91.17c-8.62,-1.57 -16.33,-5.76 -22.28,-11.71 -7.66,-7.66 -12.4,-18.24 -12.4,-29.93 0,-11.69 4.74,-22.27 12.4,-29.93 5.94,-5.95 13.66,-10.13 22.28,-11.71l0 -16.4zm7.66 85.06c7.46,0 14.22,-3.02 19.11,-7.91 4.89,-4.89 7.91,-11.64 7.91,-19.11 0,-7.46 -3.02,-14.22 -7.91,-19.11 -4.89,-4.89 -11.64,-7.91 -19.11,-7.91 -7.46,0 -14.22,3.02 -19.11,7.91 -4.89,4.89 -7.91,11.64 -7.91,19.11 0,7.46 3.02,14.22 7.91,19.11 4.89,4.89 11.64,7.91 19.11,7.91zm-101.89 28.64c-4.89,-4.89 -11.65,-7.91 -19.11,-7.91 -7.46,0 -14.22,3.02 -19.11,7.91 -4.89,4.89 -7.91,11.64 -7.91,19.11 0,7.46 3.02,14.22 7.91,19.11 4.89,4.89 11.64,7.91 19.11,7.91 7.46,0 14.22,-3.02 19.11,-7.91 4.89,-4.89 7.91,-11.65 7.91,-19.11 0,-7.46 -3.02,-14.22 -7.91,-19.11z"/></g></svg>