<?xml version="1.0" encoding="UTF-8" standalone="no"?>
<!DOCTYPE svg PUBLIC "-//W3C//DTD SVG 1.1//EN" "http://www.w3.org/Graphics/SVG/1.1/DTD/svg11.dtd">
<!-- Uploaded to: SVG Repo, www.svgrepo.com, Generator: SVG Repo Mixer Tools -->
<svg fill="#000000" viewBox="0 0 64 64" version="1.1"
    xmlns="http://www.w3.org/2000/svg" xlink="http://www.w3.org/1999/xlink"
    space="preserve" serif="http://www.serif.com/"
    style="fill-rule:evenodd;clip-rule:evenodd;stroke-linejoin:round;stroke-miterlimit:2;">
    <g id="toggle-off">
        <path
            d="M41.309,17.112c9.416,0.179 17.545,10.374 13.732,20.395c-2.105,5.532 -7.689,9.487 -13.732,9.602c-6.201,0.04 -12.402,0.04 -18.603,0c-9.653,-0.183 -17.944,-11.153 -13.383,-21.233c2.32,-5.128 7.685,-8.656 13.383,-8.764c6.201,-0.04 12.402,-0.04 18.603,0Zm-18.398,3.998c-7.151,0.046 -13.348,8.061 -9.944,15.586c1.694,3.744 5.614,6.334 9.789,6.413c6.168,0.039 12.335,0.039 18.503,0c6.934,-0.131 12.825,-7.661 10.043,-14.973c-1.54,-4.049 -5.615,-6.941 -10.044,-7.025c-6.115,-0.039 -12.231,-0.001 -18.347,-0.001Z"
            style="fill-rule:nonzero;" />
        <circle cx="41.117" cy="32.11" r="10.015" />
    </g>
</svg>